<svg width="17" height="20" viewBox="0 0 17 20" fill="none" xmlns="http://www.w3.org/2000/svg">
<path d="M15 -2.08219e-06C15.55 -2.03411e-06 16.021 0.195997 16.413 0.587997C16.805 0.979997 17.0007 1.45066 17 2L17 16L15 16L15 2L4 2L4 -3.04384e-06L15 -2.08219e-06ZM11 4C11.55 4 12.021 4.196 12.413 4.588C12.805 4.98 13.0007 5.45066 13 6L13 18C13 18.55 12.804 19.021 12.412 19.413C12.02 19.805 11.5493 20.0007 11 20L2 20C1.45 20 0.978998 19.804 0.586998 19.412C0.194998 19.02 -0.000668447 18.5493 -1.7325e-06 18L-6.8343e-07 6C-6.35347e-07 5.45 0.195999 4.979 0.587999 4.587C0.979999 4.195 1.45067 3.99933 2 4L11 4Z" fill="black"/>
</svg>
