<svg viewBox="0 0 32 32" xmlns="http://www.w3.org/2000/svg"><g id="wallet_finance_balance_money_pay" data-name="wallet, finance, balance, money, pay"><path d="m28 14.5h-7a4 4 0 0 0 0 8h4v3a1.0013 1.0013 0 0 1 -1 1h-16a3.0008 3.0008 0 0 1 -3-3v-15a3.0008 3.0008 0 0 1 3-3h14a1 1 0 0 1 1 1v1h-15a1 1 0 0 0 0 2h16a1.0013 1.0013 0 0 1 1 1v1.021a1 1 0 0 0 2 0v-1.021a2.7332 2.7332 0 0 0 -2-2.8286v-1.1714a3.0008 3.0008 0 0 0 -3-3h-14a5.0013 5.0013 0 0 0 -5 5v15a5.0013 5.0013 0 0 0 5 5h16a3.0033 3.0033 0 0 0 3-3v-3h1a1 1 0 0 0 1-1v-6a1 1 0 0 0 -1-1zm-1 6h-6a2 2 0 0 1 0-4h6z"/></g></svg>